# xmcd
#
# Track frame offsets:
#	150
#	13882
#	29237
#	48327
#	64247
#	74495
#	90152
#	106637
#	127552
#	141702
#	155680
#	174347
#	186127
#	200327
#	211857
#	230947
#	246070
#	265125
#
# Disc length: 3720
#
# Revision: 4
# Processed by: cddbd v1.5.1PL0 Copyright (c) Steve Scherf et al.
# Submitted via: VisiTrax 2.9.5.181 - For more info visit www.synapsa.com
# Normalized: r3:DSETVAR1
#
DISCID=020e8612,d60ea312,f10ea312
DTITLE=Various Artist - Toe The Line 2 - The Next Step [CD1]
DYEAR=1900
DGENRE=
TTITLE0=Marty Stuart/Travis Tritt - Honky Tonkin's What I Do Best
TTITLE1=David lee Murphy - Every Time I Get Around You
TTITLE2=Roger Brown and Swing City - Swing City (Extended Version)
TTITLE3=Mark Chesnutt - Wrong Place Wrong Time
TTITLE4=Rhett Akins - Every Cowboy's Dream
TTITLE5=The Mavericks - Missing You
TTITLE6=Tracy Byrd - Out Of Control Raging Fire
TTITLE7=Frazier River - Tangled Up In Texas (Dance Mix)
TTITLE8=George Strait - Where The Sidewalk Ends
TTITLE9=Vince Gill - A Little More Love
TTITLE10=Mark Chesnutt - Texas Is Bigger Than It Used To Be
TTITLE11=Marty Stuart - Hillbilly Rock
TTITLE12=Tracy Byrd - Honky Tonk Dancing Machine
TTITLE13=Steve Earle - Guitar Town
TTITLE14=Vince Gill - Southside Of Dixie
TTITLE15=Rhett Akins - I Brake For Brunettes
TTITLE16=Joe Ely - Highways And Heartaches
TTITLE17=Janeen Withers - Walk On
EXTD=
EXTT0=
EXTT1=
EXTT2=
EXTT3=
EXTT4=
EXTT5=
EXTT6=
EXTT7=
EXTT8=
EXTT9=
EXTT10=
EXTT11=
EXTT12=
EXTT13=
EXTT14=
EXTT15=
EXTT16=
EXTT17=
PLAYORDER=
